<svg width="16" height="16" viewBox="0 0 16 16" fill="none" xmlns="http://www.w3.org/2000/svg">
<g clip-path="url(#clip0_238_2395)">
<path d="M1 2.82788C1.885 2.45788 3.154 2.05888 4.388 1.93488C5.718 1.80088 6.846 1.99788 7.5 2.68688V12.4329C6.565 11.9029 5.38 11.8299 4.287 11.9399C3.107 12.0599 1.917 12.4009 1 12.7509V2.82788ZM8.5 2.68688C9.154 1.99788 10.282 1.80088 11.612 1.93488C12.846 2.05888 14.115 2.45788 15 2.82788V12.7509C14.082 12.4009 12.893 12.0589 11.713 11.9409C10.619 11.8299 9.435 11.9019 8.5 12.4329V2.68688ZM8 1.78288C7.015 0.935881 5.587 0.809881 4.287 0.939881C2.773 1.09288 1.245 1.61188 0.293 2.04488C0.205649 2.08461 0.131575 2.14863 0.079621 2.22931C0.0276667 2.30999 2.65714e-05 2.40392 0 2.49988L0 13.4999C2.3162e-05 13.5835 0.0210371 13.6659 0.0611171 13.7393C0.101197 13.8127 0.159062 13.8749 0.229411 13.9202C0.29976 13.9655 0.380345 13.9924 0.463783 13.9984C0.547222 14.0045 0.630848 13.9895 0.707 13.9549C1.589 13.5549 3.01 13.0739 4.387 12.9349C5.796 12.7929 6.977 13.0219 7.61 13.8119C7.65685 13.8703 7.71622 13.9174 7.78372 13.9498C7.85122 13.9822 7.92513 13.999 8 13.999C8.07487 13.999 8.14878 13.9822 8.21628 13.9498C8.28378 13.9174 8.34315 13.8703 8.39 13.8119C9.023 13.0219 10.204 12.7929 11.612 12.9349C12.99 13.0739 14.412 13.5549 15.293 13.9549C15.3692 13.9895 15.4528 14.0045 15.5362 13.9984C15.6197 13.9924 15.7002 13.9655 15.7706 13.9202C15.8409 13.8749 15.8988 13.8127 15.9389 13.7393C15.979 13.6659 16 13.5835 16 13.4999V2.49988C16 2.40392 15.9723 2.30999 15.9204 2.22931C15.8684 2.14863 15.7944 2.08461 15.707 2.04488C14.755 1.61188 13.227 1.09288 11.713 0.939881C10.413 0.808881 8.985 0.935881 8 1.78288Z" fill="black"/>
</g>
<defs>
<clipPath id="clip0_238_2395">
<rect width="16" height="16" fill="white"/>
</clipPath>
</defs>
</svg>
