<svg width="16" height="16" viewBox="0 0 16 16" fill="none" xmlns="http://www.w3.org/2000/svg">
<path d="M1 4.75C1 4.28587 1.18437 3.84075 1.51256 3.51256C1.84075 3.18437 2.28587 3 2.75 3H13.25C13.7141 3 14.1592 3.18437 14.4874 3.51256C14.8156 3.84075 15 4.28587 15 4.75V11.75C15 12.2141 14.8156 12.6592 14.4874 12.9874C14.1592 13.3156 13.7141 13.5 13.25 13.5H2.75C2.28587 13.5 1.84075 13.3156 1.51256 12.9874C1.18437 12.6592 1 12.2141 1 11.75V4.75ZM2.75 3.875C2.51794 3.875 2.29538 3.96719 2.13128 4.13128C1.96719 4.29538 1.875 4.51794 1.875 4.75V5.625H14.125V4.75C14.125 4.51794 14.0328 4.29538 13.8687 4.13128C13.7046 3.96719 13.4821 3.875 13.25 3.875H2.75ZM14.125 7.375H1.875V11.75C1.875 11.9821 1.96719 12.2046 2.13128 12.3687C2.29538 12.5328 2.51794 12.625 2.75 12.625H13.25C13.4821 12.625 13.7046 12.5328 13.8687 12.3687C14.0328 12.2046 14.125 11.9821 14.125 11.75V7.375Z" fill="white"/>
<path d="M2.75 10C2.75 9.76794 2.84219 9.54538 3.00628 9.38128C3.17038 9.21719 3.39294 9.125 3.625 9.125H4.5C4.73206 9.125 4.95462 9.21719 5.11872 9.38128C5.28281 9.54538 5.375 9.76794 5.375 10V10.875C5.375 11.1071 5.28281 11.3296 5.11872 11.4937C4.95462 11.6578 4.73206 11.75 4.5 11.75H3.625C3.39294 11.75 3.17038 11.6578 3.00628 11.4937C2.84219 11.3296 2.75 11.1071 2.75 10.875V10Z" fill="white"/>
</svg>
