<svg width="11" height="7" viewBox="0 0 11 7" fill="none" xmlns="http://www.w3.org/2000/svg">
<path d="M9.29013 0.223174C9.48022 0.0784464 9.73317 -0.00156492 9.99562 2.3197e-05C10.2581 0.00161132 10.5095 0.0846749 10.6968 0.231686C10.8841 0.378698 10.9927 0.578158 10.9996 0.78798C11.0066 0.997802 10.9113 1.20157 10.734 1.3563L5.34993 6.74132C5.25735 6.82107 5.14561 6.88507 5.02139 6.92949C4.89718 6.97391 4.76304 6.99785 4.62699 6.99986C4.49095 7.00188 4.35579 6.98193 4.22961 6.94122C4.10342 6.9005 3.9888 6.83985 3.89259 6.7629L0.32211 3.90744C0.222678 3.83334 0.142926 3.74398 0.0876123 3.6447C0.0322983 3.54542 0.00255507 3.43824 0.0001575 3.32957C-0.00224007 3.22089 0.0227572 3.11295 0.0736574 3.01217C0.124558 2.91138 0.200318 2.81984 0.29642 2.74298C0.392522 2.66612 0.506995 2.60553 0.633012 2.56483C0.759029 2.52412 0.894007 2.50413 1.02989 2.50604C1.16578 2.50796 1.29979 2.53175 1.42394 2.57599C1.54808 2.62022 1.65981 2.684 1.75246 2.76352L4.57808 5.02221L9.2645 0.246916C9.27293 0.238607 9.28194 0.230681 9.29148 0.223174H9.29013Z" fill="#C4C4C4"/>
</svg>
