<svg width="13" height="16" viewBox="0 0 13 16" fill="none" xmlns="http://www.w3.org/2000/svg">
<path d="M6.864 0.326C5.908 0.0860004 5.021 0.81 4.956 1.746C4.884 2.796 4.726 3.761 4.528 4.336C4.403 4.696 4.049 5.348 3.488 5.974C2.931 6.598 2.206 7.153 1.357 7.384C0.685 7.568 0 8.15 0 9V13C0 13.845 0.682 14.464 1.448 14.546C2.518 14.659 3.012 14.961 3.516 15.269L3.564 15.298C3.836 15.464 4.142 15.647 4.534 15.782C4.931 15.92 5.395 16 6 16H9.5C10.437 16 11.099 15.522 11.434 14.936C11.598 14.649 11.688 14.329 11.688 14.023C11.688 13.871 11.665 13.711 11.611 13.559C11.812 13.297 11.991 12.982 12.099 12.659C12.209 12.329 12.271 11.897 12.103 11.509C12.172 11.379 12.223 11.241 12.262 11.106C12.339 10.836 12.375 10.539 12.375 10.25C12.375 9.961 12.339 9.664 12.262 9.394C12.227 9.274 12.182 9.15 12.124 9.031C12.518 8.46 12.542 7.831 12.358 7.298C12.152 6.706 11.676 6.198 11.158 6.026C10.311 5.743 9.355 5.75 8.642 5.815C8.49398 5.82833 8.34627 5.845 8.199 5.865C8.54611 4.37907 8.52483 2.83083 8.137 1.355C7.999 0.846999 7.587 0.507 7.125 0.391L6.864 0.326ZM9.5 15H6C5.49 15 5.137 14.932 4.86 14.837C4.579 14.74 4.354 14.608 4.084 14.444L4.044 14.419C3.489 14.081 2.846 13.689 1.554 13.551C1.221 13.516 1 13.261 1 13.001V9C1 8.745 1.226 8.457 1.62 8.35C2.715 8.05 3.597 7.353 4.234 6.641C4.869 5.931 5.298 5.166 5.472 4.664C5.715 3.964 5.879 2.896 5.954 1.814C5.979 1.452 6.314 1.219 6.621 1.296L6.883 1.361C7.043 1.401 7.141 1.505 7.171 1.616C7.57958 3.17234 7.52923 4.81364 7.026 6.342C6.99776 6.42693 6.99284 6.51788 7.01175 6.60536C7.03065 6.69284 7.07269 6.77365 7.13348 6.83934C7.19426 6.90503 7.27157 6.9532 7.35732 6.97882C7.44308 7.00444 7.53414 7.00658 7.621 6.985H7.624L7.638 6.981L7.696 6.968C8.03796 6.89539 8.38389 6.84297 8.732 6.811C9.395 6.751 10.189 6.757 10.842 6.974C11.017 7.033 11.292 7.275 11.412 7.625C11.519 7.933 11.499 8.295 11.146 8.646L10.793 9L11.146 9.354C11.189 9.396 11.251 9.494 11.3 9.669C11.348 9.836 11.375 10.039 11.375 10.25C11.375 10.461 11.348 10.664 11.3 10.831C11.25 11.005 11.189 11.104 11.146 11.146L10.793 11.5L11.146 11.854C11.193 11.901 11.255 12.03 11.151 12.342C11.0425 12.6432 10.8702 12.9175 10.646 13.146L10.293 13.5L10.646 13.854C10.652 13.859 10.687 13.904 10.687 14.024C10.6824 14.1703 10.6408 14.3131 10.566 14.439C10.4 14.728 10.063 15 9.5 15Z" fill="#47C27E"/>
</svg>
