<svg width="98" height="98" viewBox="0 0 98 98" fill="none" xmlns="http://www.w3.org/2000/svg">
<path fill-rule="evenodd" clip-rule="evenodd" d="M64 36C65.1046 36 66 35.1046 66 34V28C66 26.8954 65.1046 26 64 26H44.0001H36.0001C34.8955 26 34.0001 26.8954 34.0001 28L34 36L34.0001 40.6505C34.0001 41.755 34.8955 42.6505 36.0001 42.6505H42.0001C43.1047 42.6505 44.0001 41.755 44.0001 40.6505V38C44.0001 36.8954 44.8955 36 46.0001 36L64 36ZM53.0005 58C54.1051 58 55.0005 57.1046 55.0005 56V50C55.0005 48.8954 54.1051 48 53.0005 48H44.0001L36.0005 48C34.8959 48 34.0005 48.8954 34.0005 50L34.0001 71C34.0001 72.1045 34.8955 73 36.0001 73H42.0001C43.1046 73 44.0001 72.1046 44.0001 71V60C44.0001 58.8954 44.8955 58 46.0001 58L53.0005 58Z" fill="#404040"/>
<path d="M13 16C13 14.3431 14.3431 13 16 13H85V11C85 4.92487 80.0751 0 74 0H11C4.92487 0 0 4.92487 0 11V87C0 93.0751 4.92487 98 11 98H87C93.0751 98 98 93.0751 98 87V24C98 17.9249 93.0751 13 87 13H85V82C85 83.6569 83.6569 85 82 85H16C14.3431 85 13 83.6569 13 82V16Z" fill="url(#paint0_linear_2301_10299)"/>
<defs>
<linearGradient id="paint0_linear_2301_10299" x1="0" y1="0" x2="98" y2="98" gradientUnits="userSpaceOnUse">
<stop stop-color="#1DC4F4"/>
<stop offset="1" stop-color="#05AEF1"/>
</linearGradient>
</defs>
</svg>
