<svg width="16" height="16" viewBox="0 0 16 16" fill="none" xmlns="http://www.w3.org/2000/svg">
<g clip-path="url(#clip0_273_3)">
<path d="M7.78816 2.33994L6.98916 3.61794C6.96563 3.65577 6.95265 3.6992 6.95154 3.74374C6.95044 3.78827 6.96126 3.8323 6.98287 3.87125C7.00449 3.9102 7.03613 3.94267 7.0745 3.9653C7.11288 3.98792 7.15661 3.99988 7.20116 3.99994H8.79916C8.84371 3.99988 8.88743 3.98792 8.92581 3.9653C8.96419 3.94267 8.99582 3.9102 9.01744 3.87125C9.03906 3.8323 9.04987 3.78827 9.04877 3.74374C9.04767 3.6992 9.03468 3.65577 9.01116 3.61794L8.21216 2.33894C8.18968 2.30298 8.15844 2.27333 8.12135 2.25278C8.08426 2.23222 8.04256 2.22144 8.00016 2.22144C7.95776 2.22144 7.91605 2.23222 7.87896 2.25278C7.84188 2.27333 7.81063 2.30298 7.78816 2.33894V2.33994ZM7.78816 13.6599L6.98916 12.3829C6.96537 12.3451 6.95218 12.3015 6.95094 12.2569C6.9497 12.2122 6.96047 12.168 6.98212 12.1289C7.00376 12.0898 7.0355 12.0572 7.07403 12.0345C7.11255 12.0118 7.15645 11.9999 7.20116 11.9999H8.79916C8.84386 11.9999 8.88776 12.0118 8.92629 12.0345C8.96481 12.0572 8.99655 12.0898 9.0182 12.1289C9.03985 12.168 9.05061 12.2122 9.04938 12.2569C9.04814 12.3015 9.03494 12.3451 9.01116 12.3829L8.21216 13.6609C8.18968 13.6969 8.15844 13.7265 8.12135 13.7471C8.08426 13.7677 8.04256 13.7784 8.00016 13.7784C7.95776 13.7784 7.91605 13.7677 7.87896 13.7471C7.84188 13.7265 7.81063 13.6969 7.78816 13.6609V13.6599ZM3.61716 9.00994L2.34016 8.21294C2.3042 8.19046 2.27455 8.15921 2.254 8.12213C2.23344 8.08504 2.22266 8.04334 2.22266 8.00094C2.22266 7.95854 2.23344 7.91683 2.254 7.87974C2.27455 7.84266 2.3042 7.81141 2.34016 7.78894L3.61816 6.98994C3.65592 6.96646 3.69926 6.95348 3.74371 6.95233C3.78816 6.95118 3.83211 6.96191 3.87104 6.98341C3.90996 7.00491 3.94244 7.0364 3.96514 7.07464C3.98784 7.11287 3.99992 7.15647 4.00016 7.20094V8.79994C4.00021 8.84464 3.98828 8.88854 3.96561 8.92706C3.94293 8.96559 3.91034 8.99733 3.87123 9.01898C3.83212 9.04063 3.78792 9.05139 3.74323 9.05015C3.69855 9.04892 3.65501 9.03572 3.61716 9.01194V9.00994ZM13.6602 8.21194L12.3832 9.01094C12.3453 9.03472 12.3018 9.04792 12.2571 9.04915C12.2124 9.05039 12.1682 9.03963 12.1291 9.01798C12.09 8.99633 12.0574 8.96459 12.0347 8.92606C12.012 8.88754 12.0001 8.84364 12.0002 8.79894V7.19994C12.0001 7.15523 12.012 7.11133 12.0347 7.07281C12.0574 7.03428 12.09 7.00254 12.1291 6.9809C12.1682 6.95925 12.2124 6.94848 12.2571 6.94972C12.3018 6.95096 12.3453 6.96415 12.3832 6.98794L13.6612 7.78694C13.6971 7.80941 13.7268 7.84066 13.7473 7.87774C13.7679 7.91483 13.7787 7.95654 13.7787 7.99894C13.7787 8.04134 13.7679 8.08304 13.7473 8.12013C13.7268 8.15722 13.6971 8.18846 13.6612 8.21094L13.6602 8.21194Z" fill="#009FFD"/>
<path d="M6.5 0C6.10218 0 5.72064 0.158035 5.43934 0.43934C5.15804 0.720644 5 1.10218 5 1.5V4.5C5 4.63261 4.94732 4.75979 4.85355 4.85355C4.75979 4.94732 4.63261 5 4.5 5H1.5C1.10218 5 0.720644 5.15804 0.43934 5.43934C0.158035 5.72064 0 6.10218 0 6.5L0 9.5C0 9.89782 0.158035 10.2794 0.43934 10.5607C0.720644 10.842 1.10218 11 1.5 11H4.5C4.63261 11 4.75979 11.0527 4.85355 11.1464C4.94732 11.2402 5 11.3674 5 11.5V14.5C5 14.8978 5.15804 15.2794 5.43934 15.5607C5.72064 15.842 6.10218 16 6.5 16H9.5C9.89782 16 10.2794 15.842 10.5607 15.5607C10.842 15.2794 11 14.8978 11 14.5V11.5C11 11.3674 11.0527 11.2402 11.1464 11.1464C11.2402 11.0527 11.3674 11 11.5 11H14.5C14.8978 11 15.2794 10.842 15.5607 10.5607C15.842 10.2794 16 9.89782 16 9.5V6.5C16 6.10218 15.842 5.72064 15.5607 5.43934C15.2794 5.15804 14.8978 5 14.5 5H11.5C11.3674 5 11.2402 4.94732 11.1464 4.85355C11.0527 4.75979 11 4.63261 11 4.5V1.5C11 1.10218 10.842 0.720644 10.5607 0.43934C10.2794 0.158035 9.89782 0 9.5 0L6.5 0ZM6 1.5C6 1.36739 6.05268 1.24021 6.14645 1.14645C6.24021 1.05268 6.36739 1 6.5 1H9.5C9.63261 1 9.75979 1.05268 9.85355 1.14645C9.94732 1.24021 10 1.36739 10 1.5V4.5C10 4.89782 10.158 5.27936 10.4393 5.56066C10.7206 5.84196 11.1022 6 11.5 6H14.5C14.6326 6 14.7598 6.05268 14.8536 6.14645C14.9473 6.24021 15 6.36739 15 6.5V9.5C15 9.63261 14.9473 9.75979 14.8536 9.85355C14.7598 9.94732 14.6326 10 14.5 10H11.5C11.1022 10 10.7206 10.158 10.4393 10.4393C10.158 10.7206 10 11.1022 10 11.5V14.5C10 14.6326 9.94732 14.7598 9.85355 14.8536C9.75979 14.9473 9.63261 15 9.5 15H6.5C6.36739 15 6.24021 14.9473 6.14645 14.8536C6.05268 14.7598 6 14.6326 6 14.5V11.5C6 11.1022 5.84196 10.7206 5.56066 10.4393C5.27936 10.158 4.89782 10 4.5 10H1.5C1.36739 10 1.24021 9.94732 1.14645 9.85355C1.05268 9.75979 1 9.63261 1 9.5V6.5C1 6.36739 1.05268 6.24021 1.14645 6.14645C1.24021 6.05268 1.36739 6 1.5 6H4.5C4.89782 6 5.27936 5.84196 5.56066 5.56066C5.84196 5.27936 6 4.89782 6 4.5V1.5Z" fill="#009FFD"/>
</g>
<defs>
<clipPath id="clip0_273_3">
<rect width="16" height="16" fill="white"/>
</clipPath>
</defs>
</svg>
