<svg width="13" height="16" viewBox="0 0 13 16" fill="none" xmlns="http://www.w3.org/2000/svg">
<path d="M6.864 15.674C5.908 15.914 5.021 15.19 4.956 14.254C4.884 13.204 4.726 12.239 4.528 11.664C4.403 11.304 4.049 10.652 3.488 10.026C2.931 9.402 2.206 8.847 1.357 8.616C0.685 8.432 0 7.85 0 7V3C0 2.155 0.682 1.536 1.448 1.454C2.518 1.341 3.012 1.039 3.516 0.731L3.564 0.702C3.836 0.536 4.142 0.353 4.534 0.218C4.931 0.08 5.395 0 6 0H9.5C10.437 0 11.099 0.478 11.434 1.064C11.598 1.351 11.688 1.671 11.688 1.977C11.688 2.129 11.665 2.289 11.611 2.441C11.812 2.703 11.991 3.018 12.099 3.341C12.209 3.671 12.271 4.103 12.103 4.491C12.172 4.621 12.223 4.759 12.262 4.894C12.339 5.164 12.375 5.461 12.375 5.75C12.375 6.039 12.339 6.336 12.262 6.606C12.227 6.726 12.182 6.85 12.124 6.969C12.518 7.54 12.542 8.169 12.358 8.702C12.152 9.294 11.676 9.802 11.158 9.974C10.311 10.257 9.355 10.25 8.642 10.185C8.49398 10.1717 8.34627 10.155 8.199 10.135C8.54611 11.6209 8.52483 13.1692 8.137 14.645C7.999 15.153 7.587 15.493 7.125 15.609L6.864 15.674ZM9.5 1H6C5.49 1 5.137 1.068 4.86 1.163C4.579 1.26 4.354 1.392 4.084 1.556L4.044 1.581C3.489 1.919 2.846 2.311 1.554 2.449C1.221 2.484 1 2.739 1 2.999V7C1 7.255 1.226 7.543 1.62 7.65C2.715 7.95 3.597 8.647 4.234 9.359C4.869 10.069 5.298 10.834 5.472 11.336C5.715 12.036 5.879 13.104 5.954 14.186C5.979 14.548 6.314 14.781 6.621 14.704L6.883 14.639C7.043 14.599 7.141 14.495 7.171 14.384C7.57958 12.8277 7.52923 11.1864 7.026 9.658C6.99776 9.57307 6.99284 9.48212 7.01175 9.39464C7.03065 9.30716 7.07269 9.22635 7.13348 9.16066C7.19426 9.09497 7.27157 9.0468 7.35732 9.02118C7.44308 8.99556 7.53414 8.99342 7.621 9.015H7.624L7.638 9.019L7.696 9.032C8.03796 9.10461 8.38389 9.15703 8.732 9.189C9.395 9.249 10.189 9.243 10.842 9.026C11.017 8.967 11.292 8.725 11.412 8.375C11.519 8.067 11.499 7.705 11.146 7.354L10.793 7L11.146 6.646C11.189 6.604 11.251 6.506 11.3 6.331C11.348 6.164 11.375 5.961 11.375 5.75C11.375 5.539 11.348 5.336 11.3 5.169C11.25 4.995 11.189 4.896 11.146 4.854L10.793 4.5L11.146 4.146C11.193 4.099 11.255 3.97 11.151 3.658C11.0425 3.35677 10.8702 3.08253 10.646 2.854L10.293 2.5L10.646 2.146C10.652 2.141 10.687 2.096 10.687 1.976C10.6824 1.82966 10.6408 1.68688 10.566 1.561C10.4 1.272 10.063 1 9.5 1Z" fill="#A34A54"/>
</svg>
